<mxfile host="app.diagrams.net" modified="2023-12-16T04:47:54.352Z" agent="Mozilla/5.0 (Macintosh; Intel Mac OS X 10_15_7) AppleWebKit/605.1.15 (KHTML, like Gecko) Version/16.5.1 Safari/605.1.15" version="22.1.11" etag="5AJCmEh_GsEpaU_MlXUV" type="github">
  <diagram name="ページ1" id="6Al5ES2CbL79BTHHyfsO">
    <mxGraphModel>
      <root>
        <mxCell id="0" />
        <mxCell id="1" parent="0" />
      </root>
    </mxGraphModel>
  </diagram>
</mxfile>
